<?xml version="1.0" standalone="no"?>
<!DOCTYPE svg PUBLIC "-//W3C//DTD SVG 20010904//EN"
 "http://www.w3.org/TR/2001/REC-SVG-20010904/DTD/svg10.dtd">
<svg version="1.0" xmlns="http://www.w3.org/2000/svg"
 width="465" height="302" viewBox="0 0 1898.000000 874.000000"
 preserveAspectRatio="xMidYMid meet">

<g transform="translate(0.000000,874.000000) scale(0.100000,-0.100000)"
fill="#000000" stroke="none">
<path d="M10583 6800 c-3 -11 -9 -20 -14 -20 -5 0 -9 -7 -9 -15 0 -8 4 -15 9
-15 6 0 11 -19 13 -42 3 -36 7 -44 27 -46 29 -5 52 15 28 24 -22 8 -22 53 1
70 16 12 16 13 0 19 -10 4 -18 16 -18 26 0 25 -30 24 -37 -1z"/>
<path d="M10088 6769 c-27 -15 -25 -85 2 -99 29 -16 74 -9 78 12 3 13 -3 16
-25 15 -24 -2 -28 2 -28 23 0 21 4 25 28 23 21 -1 27 3 27 18 0 15 -7 19 -32
19 -18 0 -41 -5 -50 -11z"/>
<path d="M10190 6719 c0 -52 2 -59 20 -59 17 0 20 7 20 41 0 32 4 42 20 46 36
10 23 31 -20 31 l-40 1 0 -60z"/>
<path d="M10280 6775 c0 -2 9 -27 20 -55 11 -28 20 -58 20 -66 0 -9 -9 -18
-20 -21 -28 -7 -25 -33 3 -33 33 0 49 23 80 108 l27 73 -22 -3 c-15 -2 -25
-13 -31 -38 l-10 -35 -15 38 c-10 24 -21 37 -33 37 -11 0 -19 -2 -19 -5z"/>
<path d="M10420 6690 c0 -83 1 -90 20 -90 16 0 20 7 20 33 0 30 2 32 32 32 26
0 35 6 47 29 12 26 12 33 0 55 -13 22 -22 26 -67 28 l-52 2 0 -89z m78 33 c-3
-30 -25 -42 -34 -19 -9 22 2 46 21 46 12 0 15 -8 13 -27z"/>
<path d="M10675 6766 c-11 -8 -18 -26 -18 -46 0 -37 23 -60 61 -60 56 0 87 51
57 96 -18 28 -69 33 -100 10z m69 -33 c8 -19 -17 -48 -33 -39 -12 8 -15 39 -4
49 12 12 31 7 37 -10z"/>
<path d="M10812 6768 c-14 -14 -16 -48 -4 -48 5 0 17 -7 28 -16 18 -15 18 -15
-8 -9 -23 4 -28 2 -28 -15 0 -16 7 -20 34 -20 65 0 81 45 27 76 l-26 15 28 -6
c22 -4 27 -2 27 15 0 16 -7 20 -33 20 -18 0 -38 -5 -45 -12z"/>
<path d="M7804 5897 c-2 -7 -3 -78 -2 -157 l3 -145 1550 -5 c853 -3 1561 -2
1575 1 l25 5 0 155 0 154 -1573 3 c-1282 2 -1574 0 -1578 -11z m1426 -117 c0
-5 -7 -7 -15 -4 -8 4 -15 2 -15 -4 0 -5 7 -12 15 -16 8 -3 15 -15 15 -26 0
-15 -7 -20 -25 -20 -14 0 -25 4 -25 10 0 5 7 7 15 4 20 -8 19 6 -2 21 -21 16
-10 45 17 45 11 0 20 -4 20 -10z m48 3 c-10 -2 -18 -9 -18 -14 0 -5 8 -10 18
-10 16 -1 16 -2 0 -6 -24 -6 -23 -33 1 -33 12 0 21 11 27 32 12 43 39 48 52
11 l10 -28 1 28 c1 23 5 27 30 27 17 0 33 -5 37 -11 4 -8 9 -8 17 0 17 17 77
14 77 -4 0 -8 7 -15 15 -15 8 0 15 7 15 15 0 8 5 15 10 15 6 0 10 -18 10 -40
0 -22 -4 -40 -10 -40 -5 0 -10 9 -10 20 0 11 -7 20 -15 20 -8 0 -15 -9 -15
-20 0 -18 -6 -20 -57 -18 -32 1 -61 7 -65 12 -5 7 -8 7 -8 -1 0 -7 -10 -13
-23 -13 -13 0 -29 6 -36 13 -11 10 -14 10 -18 0 -3 -8 -22 -13 -44 -13 -39 0
-39 0 -39 40 0 37 2 40 28 39 16 -1 20 -3 10 -6z"/>
<path d="M9401 5764 c0 -11 3 -14 6 -6 3 7 2 16 -1 19 -3 4 -6 -2 -5 -13z"/>
<path d="M9466 5765 c-8 -22 4 -47 21 -41 8 3 17 6 19 6 12 0 2 39 -12 44 -21
8 -21 8 -28 -9z"/>
<path d="M9425 5751 c-3 -5 -1 -12 5 -16 5 -3 10 1 10 9 0 18 -6 21 -15 7z"/>
<path d="M10000 5100 c0 -47 3 -60 15 -60 8 0 15 8 15 18 1 16 1 16 11 0 5
-10 17 -18 24 -18 18 0 19 12 3 28 -10 10 -10 17 0 32 10 16 10 20 -1 20 -7 0
-18 -5 -25 -12 -9 -9 -12 -5 -12 20 0 22 -5 32 -15 32 -12 0 -15 -13 -15 -60z"/>
<path d="M9700 5095 c0 -42 3 -55 15 -55 10 0 15 11 16 33 l1 32 9 -32 c12
-40 34 -43 47 -5 l10 27 1 -27 c1 -18 6 -28 16 -28 12 0 15 13 15 55 0 47 -3
55 -19 55 -12 0 -23 -11 -31 -32 l-11 -33 -14 33 c-9 21 -21 32 -35 32 -18 0
-20 -6 -20 -55z"/>
<path d="M10304 5142 c-24 -16 -33 -48 -21 -73 10 -18 21 -24 46 -24 19 0 36
5 38 10 2 6 -9 11 -24 10 -24 0 -28 4 -28 30 0 26 4 30 28 30 15 -1 27 5 27
12 0 14 -47 18 -66 5z"/>
<path d="M10182 5127 c-6 -7 -8 -27 -3 -47 5 -26 13 -36 29 -38 12 -2 22 1 22
7 0 6 -4 11 -10 11 -14 0 -12 38 2 42 9 3 8 9 -4 21 -20 20 -23 21 -36 4z"/>
<path d="M9855 5111 c-3 -7 3 -11 17 -12 l23 0 -22 -9 c-13 -6 -23 -18 -23
-30 0 -16 6 -20 36 -20 35 0 35 1 32 38 -3 32 -7 37 -30 40 -14 2 -29 -2 -33
-7z m35 -41 c0 -5 -5 -10 -11 -10 -5 0 -7 5 -4 10 3 6 8 10 11 10 2 0 4 -4 4
-10z"/>
<path d="M9940 5080 c0 -29 4 -40 15 -40 10 0 15 10 15 30 0 17 5 30 10 30 6
0 10 5 10 10 0 6 -11 10 -25 10 -22 0 -25 -4 -25 -40z"/>
<path d="M10089 5096 c-15 -33 2 -56 42 -56 34 0 39 17 7 23 l-23 4 23 2 c36
2 26 45 -10 49 -22 3 -30 -2 -39 -22z"/>
<path d="M10380 5111 c0 -6 10 -11 23 -12 l22 0 -22 -9 c-13 -6 -23 -18 -23
-30 0 -16 6 -20 36 -20 35 0 35 1 32 38 -3 34 -6 37 -35 40 -19 2 -33 -1 -33
-7z m40 -41 c0 -5 -5 -10 -11 -10 -5 0 -7 5 -4 10 3 6 8 10 11 10 2 0 4 -4 4
-10z"/>
<path d="M10470 5060 c0 -47 3 -60 15 -60 8 0 15 9 15 20 0 13 7 20 20 20 25
0 40 29 29 58 -6 17 -16 22 -44 22 l-35 0 0 -60z m55 20 c0 -7 -6 -15 -12 -17
-8 -3 -13 4 -13 17 0 13 5 20 13 18 6 -3 12 -11 12 -18z"/>
<path d="M7800 3325 l0 -1565 1580 0 1580 0 0 1565 0 1565 -1580 0 -1580 0 0
-1565z m3150 1410 l0 -145 -1570 0 -1570 0 0 145 0 145 1570 0 1570 0 0 -145z
m0 -310 l0 -145 -1570 0 -1570 0 0 145 0 145 1570 0 1570 0 0 -145z m0 -315
l0 -150 -1570 0 -1570 0 0 150 0 150 1570 0 1570 0 0 -150z m0 -315 l0 -145
-1570 0 -1570 0 0 145 0 145 1570 0 1570 0 0 -145z m0 -310 l0 -145 -1570 0
-1570 0 0 145 0 145 1570 0 1570 0 0 -145z m0 -310 l0 -145 -1570 0 -1570 0 0
145 0 145 1570 0 1570 0 0 -145z m0 -315 l0 -150 -1570 0 -1570 0 0 150 0 150
1570 0 1570 0 0 -150z m0 -315 l0 -145 -1570 0 -1570 0 0 145 0 145 1570 0
1570 0 0 -145z m0 -310 l0 -145 -1570 0 -1570 0 0 145 0 145 1570 0 1570 0 0
-145z m0 -315 l0 -150 -1570 0 -1570 0 0 150 0 150 1570 0 1570 0 0 -150z"/>
<path d="M10534 4817 c-3 -8 -4 -49 -2 -93 l3 -79 169 -3 c116 -2 173 1 182 9
21 17 20 165 -2 173 -9 3 -90 6 -180 6 -128 0 -166 -3 -170 -13z m176 -73 c0
-19 5 -34 10 -34 6 0 10 16 10 35 0 30 3 35 23 35 13 0 28 -5 35 -12 9 -9 12
-9 12 0 0 7 6 12 14 12 12 0 12 -7 -2 -40 -9 -22 -20 -40 -23 -40 -4 0 -10 15
-13 33 l-7 32 -14 -32 c-14 -33 -47 -45 -61 -22 -4 8 -9 8 -17 0 -6 -6 -24
-11 -39 -11 -26 0 -28 3 -28 40 l0 40 50 -1 c50 -2 50 -2 50 -35z"/>
<path d="M10641 4724 c0 -11 3 -14 6 -6 3 7 2 16 -1 19 -3 4 -6 -2 -5 -13z"/>
<path d="M9939 4784 c-10 -13 -10 -19 0 -36 10 -16 10 -22 1 -28 -9 -6 -9 -9
0 -15 7 -4 19 0 28 8 12 13 13 19 3 31 -7 9 -11 22 -8 31 9 21 -8 28 -24 9z"/>
<path d="M9990 4771 c0 -10 8 -22 18 -26 16 -6 16 -8 -3 -22 l-20 -15 20 4
c25 4 34 48 11 48 -22 0 -20 17 2 23 13 4 11 5 -5 6 -16 1 -23 -5 -23 -18z"/>
<path d="M10045 4780 c-3 -5 0 -7 8 -4 24 9 28 -12 7 -31 -27 -25 -25 -35 8
-34 22 0 23 2 9 8 -17 6 -17 8 -3 20 23 19 21 51 -3 51 -11 0 -23 -4 -26 -10z"/>
<path d="M10104 4778 c-5 -8 -2 -9 9 -5 25 9 29 -8 7 -28 -27 -25 -25 -35 8
-34 18 1 21 3 9 6 -17 4 -18 6 -2 24 10 10 15 25 12 34 -7 18 -33 20 -43 3z"/>
<path d="M10173 4784 c20 -6 22 -20 5 -27 -10 -4 -10 -6 0 -6 6 -1 12 -8 12
-17 0 -10 -6 -14 -15 -10 -8 3 -15 1 -15 -5 0 -6 10 -9 23 -7 18 2 22 9 22 38
-1 30 -5 35 -25 37 -15 1 -18 0 -7 -3z"/>
<path d="M10233 4783 c13 -3 16 -10 12 -21 -15 -35 -17 -52 -7 -52 5 0 12 10
15 23 2 12 8 30 12 40 6 14 2 17 -21 16 -19 -1 -22 -3 -11 -6z"/>
<path d="M10309 4783 c-3 -30 -9 -48 -18 -51 -30 -10 -4 -19 54 -19 36 -1 65
3 65 8 0 14 38 11 43 -3 10 -23 24 10 19 42 -5 36 -14 38 -35 8 l-16 -23 -7
23 c-9 31 -46 26 -55 -8 l-7 -25 -1 28 c-1 20 -6 27 -21 27 -11 0 -20 -3 -21
-7z m26 -13 c3 -5 1 -10 -4 -10 -6 0 -11 5 -11 10 0 6 2 10 4 10 3 0 8 -4 11
-10z m65 -20 c0 -10 -4 -22 -10 -25 -6 -4 -10 7 -10 25 0 18 4 29 10 25 6 -3
10 -15 10 -25z m-60 -15 c0 -8 -4 -15 -10 -15 -5 0 -10 7 -10 15 0 8 5 15 10
15 6 0 10 -7 10 -15z"/>
<path d="M10534 4507 c-3 -8 -4 -49 -2 -93 l3 -79 160 -3 c88 -1 170 0 183 3
20 5 22 11 22 83 0 47 -5 83 -12 90 -18 18 -347 17 -354 -1z m176 -83 c0 -19
5 -34 10 -34 6 0 10 16 10 35 0 30 3 35 23 35 13 0 28 -5 35 -12 9 -9 12 -9
12 0 0 7 6 12 14 12 12 0 12 -7 -2 -40 -9 -22 -20 -40 -23 -40 -4 0 -10 15
-13 33 l-7 32 -14 -32 c-14 -33 -47 -45 -61 -22 -4 8 -9 8 -17 0 -6 -6 -24
-11 -39 -11 -26 0 -28 3 -28 40 l0 40 50 -1 c50 -2 50 -2 50 -35z"/>
<path d="M10641 4404 c0 -11 3 -14 6 -6 3 7 2 16 -1 19 -3 4 -6 -2 -5 -13z"/>
<path d="M9995 4480 c-4 -6 -4 -23 0 -37 4 -16 2 -29 -5 -33 -8 -5 -7 -9 4
-13 22 -9 50 21 36 38 -6 8 -10 21 -8 31 3 20 -17 30 -27 14z"/>
<path d="M10050 4469 c0 -5 4 -8 9 -4 19 11 20 -13 1 -30 -27 -25 -25 -35 8
-34 22 0 23 2 9 8 -17 6 -17 8 -3 20 23 19 21 51 -4 51 -11 0 -20 -5 -20 -11z"/>
<path d="M10108 4473 c-2 -5 -3 -21 -3 -38 0 -23 5 -31 23 -33 12 -2 22 2 22
9 0 9 4 8 15 -1 24 -20 45 -5 42 32 -2 25 -7 33 -22 33 -12 0 -20 -7 -20 -17
0 -9 -4 -20 -8 -24 -4 -4 -7 5 -7 19 0 20 -5 27 -19 27 -11 0 -21 -3 -23 -7z
m32 -7 c0 -3 -4 -8 -10 -11 -5 -3 -10 -1 -10 4 0 6 5 11 10 11 6 0 10 -2 10
-4z m0 -41 c0 -8 -4 -15 -10 -15 -5 0 -10 7 -10 15 0 8 5 15 10 15 6 0 10 -7
10 -15z m54 -6 c-3 -5 -10 -7 -15 -3 -5 3 -7 10 -3 15 3 5 10 7 15 3 5 -3 7
-10 3 -15z"/>
<path d="M10220 4470 c0 -5 7 -7 15 -4 9 4 15 0 15 -9 0 -8 -7 -20 -15 -27
-23 -19 -18 -30 13 -29 18 1 21 3 9 6 -17 4 -18 6 -2 24 10 10 15 25 12 34 -7
16 -47 21 -47 5z"/>
<path d="M10310 4461 c0 -11 -7 -26 -15 -35 -21 -21 -19 -23 19 -24 38 -1 47
10 39 51 -6 32 -43 39 -43 8z m30 -1 c0 -5 -4 -10 -10 -10 -5 0 -10 5 -10 10
0 6 5 10 10 10 6 0 10 -4 10 -10z m0 -35 c0 -8 -4 -15 -10 -15 -5 0 -10 7 -10
15 0 8 5 15 10 15 6 0 10 -7 10 -15z"/>
<path d="M10380 4469 c12 -8 12 -12 2 -16 -10 -4 -9 -8 5 -18 17 -13 16 -14
-7 -24 l-25 -10 27 0 c25 -1 27 2 26 39 0 34 -4 40 -22 40 -17 0 -19 -2 -6
-11z"/>
<path d="M10427 4473 c-14 -13 -6 -34 16 -42 l22 -9 -25 -10 c-24 -10 -24 -11
-3 -11 29 -1 48 32 33 59 -11 20 -31 26 -43 13z m33 -24 c0 -5 -4 -9 -10 -9
-5 0 -10 7 -10 16 0 8 5 12 10 9 6 -3 10 -10 10 -16z"/>
<path d="M10534 4187 c-3 -8 -4 -47 -2 -88 l3 -74 180 0 180 0 0 85 0 85 -178
3 c-143 2 -178 0 -183 -11z m176 -73 c0 -19 5 -34 10 -34 6 0 10 16 10 35 0
30 3 35 23 35 13 0 28 -5 35 -12 9 -9 12 -9 12 0 0 7 6 12 14 12 12 0 12 -7
-2 -40 -18 -42 -32 -52 -32 -22 0 10 -7 27 -15 38 -11 14 -14 15 -9 2 13 -38
-41 -80 -62 -47 -4 8 -9 8 -17 0 -6 -6 -24 -11 -39 -11 -26 0 -28 3 -28 40 l0
40 50 -1 c50 -2 50 -2 50 -35z"/>
<path d="M10641 4094 c0 -11 3 -14 6 -6 3 7 2 16 -1 19 -3 4 -6 -2 -5 -13z"/>
<path d="M10192 4158 c-15 -15 -16 -38 -2 -38 6 0 10 -7 10 -15 0 -8 -6 -15
-12 -15 -9 0 -8 -3 2 -10 9 -5 19 -5 27 2 16 13 17 38 2 38 -6 0 -9 9 -6 20 6
24 -5 34 -21 18z"/>
<path d="M10244 4144 c3 -9 6 -27 6 -40 0 -13 5 -24 10 -24 6 0 10 18 10 40 0
30 -4 40 -16 40 -11 0 -14 -5 -10 -16z"/>
<path d="M10304 4130 c-4 -16 -10 -30 -15 -30 -5 0 -9 -4 -9 -8 0 -14 64 -12
73 1 7 9 10 9 14 0 6 -15 43 -17 43 -3 0 6 8 5 21 -2 17 -11 22 -10 34 5 7 10
12 26 10 35 -2 9 -4 20 -4 25 -1 11 -36 8 -49 -5 -9 -9 -12 -9 -12 0 0 16 -37
15 -44 0 -5 -10 -7 -10 -12 0 -12 25 -44 13 -50 -18z m36 -10 c0 -16 -4 -30
-10 -30 -5 0 -10 14 -10 30 0 17 5 30 10 30 6 0 10 -13 10 -30z m60 0 c0 -16
-4 -30 -10 -30 -5 0 -10 14 -10 30 0 17 5 30 10 30 6 0 10 -13 10 -30z m60 6
c0 -14 -4 -28 -10 -31 -6 -4 -10 7 -10 24 0 17 5 31 10 31 6 0 10 -11 10 -24z"/>
<path d="M10534 3877 c-3 -8 -4 -49 -2 -93 l3 -79 180 0 180 0 0 90 0 90 -178
3 c-142 2 -178 0 -183 -11z m176 -73 c0 -19 5 -34 10 -34 6 0 10 16 10 35 0
30 3 35 23 35 13 0 28 -5 35 -12 9 -9 12 -9 12 0 0 7 6 12 14 12 12 0 12 -7
-2 -40 -9 -22 -20 -40 -23 -40 -4 0 -10 15 -13 33 l-7 32 -14 -32 c-14 -33
-47 -45 -61 -22 -4 8 -9 8 -17 0 -6 -6 -24 -11 -39 -11 -26 0 -28 3 -28 40 l0
40 50 -1 c50 -2 50 -2 50 -35z"/>
<path d="M10641 3784 c0 -11 3 -14 6 -6 3 7 2 16 -1 19 -3 4 -6 -2 -5 -13z"/>
<path d="M10093 3853 c-17 -6 -17 -35 -1 -51 10 -10 10 -15 -1 -21 -10 -7 -10
-10 -1 -16 7 -4 19 0 28 8 12 13 13 19 3 31 -7 9 -11 22 -8 31 7 16 -2 24 -20
18z"/>
<path d="M10135 3840 c-3 -5 -2 -10 4 -10 5 0 12 -15 14 -32 3 -29 4 -27 5 10
2 39 -9 55 -23 32z"/>
<path d="M10189 3845 c-8 -8 3 -75 12 -75 5 0 9 18 9 40 0 36 -8 49 -21 35z"/>
<path d="M10220 3840 c0 -5 7 -7 15 -4 9 4 15 0 15 -9 0 -8 -7 -20 -15 -27
-23 -19 -18 -30 13 -29 16 1 20 3 10 6 -16 4 -16 6 -2 28 9 13 13 29 9 35 -8
13 -45 13 -45 0z"/>
<path d="M10310 3831 c0 -10 8 -22 18 -26 16 -6 16 -8 -3 -22 l-20 -15 20 4
c25 4 34 48 11 48 -22 0 -20 17 2 23 13 4 11 5 -5 6 -16 1 -23 -5 -23 -18z"/>
<path d="M10364 3835 c-8 -19 3 -35 24 -35 15 -1 15 -2 -2 -15 -15 -11 -16
-15 -5 -15 8 0 20 5 27 12 9 9 12 9 12 -1 0 -7 9 -11 23 -9 18 2 22 9 22 38 0
27 -4 35 -20 38 -17 3 -17 1 -5 -7 12 -9 13 -13 2 -20 -11 -6 -10 -10 4 -15
12 -5 14 -10 7 -17 -16 -16 -29 -4 -36 31 -5 22 -12 30 -27 30 -11 0 -23 -7
-26 -15z m36 -10 c0 -8 -4 -15 -10 -15 -5 0 -10 7 -10 15 0 8 5 15 10 15 6 0
10 -7 10 -15z"/>
<path d="M10280 3780 c0 -5 5 -10 10 -10 6 0 10 5 10 10 0 6 -4 10 -10 10 -5
0 -10 -4 -10 -10z"/>
<path d="M10537 3574 c-9 -9 -9 -146 -1 -168 5 -14 31 -16 180 -16 201 0 187
-9 182 115 l-3 70 -176 3 c-96 1 -178 -1 -182 -4z m173 -80 c0 -19 5 -34 10
-34 6 0 10 16 10 35 0 30 3 35 23 35 13 0 28 -5 35 -12 9 -9 12 -9 12 0 0 7 6
12 14 12 12 0 12 -7 -2 -40 -9 -22 -20 -40 -23 -40 -4 0 -10 15 -13 33 l-7 32
-14 -32 c-14 -33 -47 -45 -61 -22 -4 8 -9 8 -17 0 -6 -6 -24 -11 -39 -11 -26
0 -28 3 -28 40 l0 40 50 -1 c50 -2 50 -2 50 -35z"/>
<path d="M10641 3474 c0 -11 3 -14 6 -6 3 7 2 16 -1 19 -3 4 -6 -2 -5 -13z"/>
<path d="M10171 3537 c-14 -14 -14 -37 -1 -37 6 0 10 -7 10 -15 0 -8 -6 -15
-12 -15 -9 0 -8 -3 2 -10 9 -5 19 -5 27 2 15 12 17 38 3 38 -14 0 -12 28 2 32
8 3 7 6 -4 10 -8 4 -21 1 -27 -5z"/>
<path d="M10224 3526 c-11 -28 0 -61 21 -61 16 0 20 7 20 35 0 25 -5 36 -18
38 -9 2 -20 -3 -23 -12z m36 -26 c0 -10 -5 -22 -10 -25 -13 -8 -24 20 -16 41
8 20 26 9 26 -16z"/>
<path d="M10310 3521 c0 -10 8 -22 18 -26 16 -6 16 -7 -2 -21 -19 -14 -19 -14
2 -14 17 0 22 6 22 25 0 16 -6 25 -15 25 -21 0 -19 18 3 23 13 4 11 5 -5 6
-16 1 -23 -5 -23 -18z"/>
<path d="M10370 3521 c0 -10 8 -22 18 -26 16 -6 16 -8 -3 -22 l-20 -15 20 4
c25 4 34 48 11 48 -22 0 -20 17 2 23 13 4 11 5 -5 6 -16 1 -23 -5 -23 -18z"/>
<path d="M10424 3525 c-8 -19 3 -35 24 -35 15 -1 15 -2 -2 -15 -18 -13 -18
-15 -3 -15 22 0 38 39 25 63 -11 21 -37 22 -44 2z m36 -16 c0 -5 -4 -9 -10 -9
-5 0 -10 7 -10 16 0 8 5 12 10 9 6 -3 10 -10 10 -16z"/>
<path d="M10280 3470 c0 -5 5 -10 10 -10 6 0 10 5 10 10 0 6 -4 10 -10 10 -5
0 -10 -4 -10 -10z"/>
<path d="M10534 3257 c-3 -8 -4 -49 -2 -93 l3 -79 180 0 180 0 0 90 0 90 -178
3 c-142 2 -178 0 -183 -11z m176 -83 c0 -19 5 -34 10 -34 6 0 10 16 10 35 0
30 3 35 23 35 13 0 28 -5 35 -12 9 -9 12 -9 12 0 0 7 6 12 14 12 12 0 12 -7
-2 -40 -9 -22 -20 -40 -23 -40 -4 0 -10 15 -13 33 l-7 32 -14 -32 c-14 -33
-47 -45 -61 -22 -4 8 -9 8 -17 0 -6 -6 -24 -11 -39 -11 -26 0 -28 3 -28 40 l0
40 50 -1 c50 -2 50 -2 50 -35z"/>
<path d="M10641 3154 c0 -11 3 -14 6 -6 3 7 2 16 -1 19 -3 4 -6 -2 -5 -13z"/>
<path d="M10072 3228 c-15 -15 -16 -38 -2 -38 6 0 10 -7 10 -15 0 -8 -6 -15
-12 -15 -9 0 -8 -3 2 -10 9 -5 19 -5 27 2 16 13 17 38 2 38 -6 0 -9 9 -6 20 6
24 -5 34 -21 18z"/>
<path d="M10130 3220 c12 -8 13 -12 2 -19 -11 -6 -10 -10 5 -15 17 -7 17 -8
-2 -23 l-20 -15 20 4 c15 2 20 12 22 41 2 32 -1 37 -20 37 -18 0 -19 -2 -7
-10z"/>
<path d="M10180 3211 c0 -10 8 -22 18 -26 16 -6 16 -8 -3 -22 l-20 -15 20 4
c25 4 34 48 11 48 -22 0 -20 17 2 23 13 4 11 5 -5 6 -16 1 -23 -5 -23 -18z"/>
<path d="M10235 3220 c-3 -5 -2 -10 4 -10 5 0 12 -15 14 -32 3 -29 4 -27 5 10
2 39 -9 55 -23 32z"/>
<path d="M10320 3211 c-5 -11 -17 -27 -26 -36 -9 -9 -13 -19 -9 -23 4 -4 10
-1 12 6 3 6 11 12 18 12 7 0 16 -6 18 -12 4 -10 8 -9 17 2 9 11 13 12 17 3 6
-16 43 -17 43 -1 0 9 3 9 12 0 30 -30 69 8 52 52 -7 19 -40 21 -48 4 -5 -10
-7 -10 -12 0 -10 22 -42 13 -52 -15 l-10 -28 -1 28 c-1 31 -16 35 -31 8z m80
-21 c0 -16 -4 -30 -10 -30 -5 0 -10 14 -10 30 0 17 5 30 10 30 6 0 10 -13 10
-30z m60 -6 c0 -13 -4 -24 -10 -24 -5 0 -10 14 -10 31 0 17 4 28 10 24 6 -3
10 -17 10 -31z"/>
<path d="M10534 2937 c-3 -8 -4 -47 -2 -88 l3 -74 180 0 180 0 0 85 0 85 -178
3 c-143 2 -178 0 -183 -11z m176 -73 c0 -19 5 -34 10 -34 6 0 10 16 10 35 0
30 3 35 23 35 13 0 28 -5 35 -12 9 -9 12 -9 12 0 0 7 6 12 14 12 12 0 12 -7
-2 -40 -20 -48 -28 -50 -35 -10 -4 17 -11 30 -17 30 -6 0 -8 -4 -5 -10 3 -5 1
-19 -5 -30 -11 -21 -44 -27 -56 -9 -4 8 -9 8 -17 0 -6 -6 -24 -11 -39 -11 -26
0 -28 3 -28 40 l0 40 50 -1 c50 -2 50 -2 50 -35z"/>
<path d="M10641 2844 c0 -11 3 -14 6 -6 3 7 2 16 -1 19 -3 4 -6 -2 -5 -13z"/>
<path d="M10010 2905 c-8 -10 -8 -19 2 -35 11 -17 11 -22 0 -29 -11 -7 -11 -9
0 -13 7 -3 19 -3 26 -1 14 5 16 43 2 43 -14 0 -12 28 2 32 8 3 6 7 -4 11 -9 3
-22 0 -28 -8z"/>
<path d="M10060 2900 c0 -5 7 -7 15 -4 9 4 15 0 15 -9 0 -8 -7 -17 -15 -21
-27 -10 -18 -36 13 -35 16 1 20 3 10 6 -16 4 -16 6 -2 28 9 13 13 29 9 35 -8
13 -45 13 -45 0z"/>
<path d="M10122 2870 c-1 -37 2 -41 21 -38 18 2 22 10 22 38 0 28 -4 36 -21
38 -19 3 -22 -2 -22 -38z m29 -23 c-13 -13 -26 -3 -16 12 3 6 11 8 17 5 6 -4
6 -10 -1 -17z"/>
<path d="M10183 2872 c2 -30 6 -37 22 -37 14 0 20 7 20 24 1 38 23 37 28 -1 4
-31 4 -30 5 7 l2 41 -40 1 -39 2 2 -37z m31 -23 c-3 -5 -10 -7 -15 -3 -5 3 -7
10 -3 15 3 5 10 7 15 3 5 -3 7 -10 3 -15z"/>
<path d="M10310 2895 c-7 -8 -10 -25 -6 -39 5 -21 11 -24 53 -24 27 0 54 5 61
11 8 6 12 6 12 -2 0 -15 37 -14 42 2 8 19 -2 37 -20 37 -15 1 -14 3 3 16 20
16 20 16 0 12 -11 -2 -25 -14 -33 -28 l-13 -25 3 25 c2 19 -2 26 -19 28 -18 3
-23 -2 -23 -18 0 -16 -4 -20 -16 -16 -9 3 -21 6 -27 6 -7 0 -3 7 7 15 16 12
17 15 4 15 -8 0 -21 -7 -28 -15z m90 -5 c0 -5 -4 -10 -10 -10 -5 0 -10 5 -10
10 0 6 5 10 10 10 6 0 10 -4 10 -10z m-60 -36 c0 -8 -4 -12 -10 -9 -5 3 -10
10 -10 16 0 5 5 9 10 9 6 0 10 -7 10 -16z m60 1 c0 -8 -4 -15 -10 -15 -5 0
-10 7 -10 15 0 8 5 15 10 15 6 0 10 -7 10 -15z m60 -1 c0 -8 -4 -12 -10 -9 -5
3 -10 10 -10 16 0 5 5 9 10 9 6 0 10 -7 10 -16z"/>
<path d="M10280 2840 c0 -5 5 -10 10 -10 6 0 10 5 10 10 0 6 -4 10 -10 10 -5
0 -10 -4 -10 -10z"/>
<path d="M10534 2627 c-3 -8 -4 -49 -2 -93 l3 -79 180 0 180 0 0 90 0 90 -178
3 c-142 2 -178 0 -183 -11z m176 -73 c0 -19 5 -34 10 -34 6 0 10 16 10 35 0
30 3 35 23 35 13 0 28 -5 35 -12 9 -9 12 -9 12 0 0 7 6 12 14 12 12 0 12 -7
-2 -40 -9 -22 -20 -40 -23 -40 -4 0 -10 15 -13 33 l-7 32 -14 -32 c-14 -33
-47 -45 -61 -22 -4 8 -9 8 -17 0 -6 -6 -24 -11 -39 -11 -26 0 -28 3 -28 40 l0
40 50 -1 c50 -2 50 -2 50 -35z"/>
<path d="M10641 2534 c0 -11 3 -14 6 -6 3 7 2 16 -1 19 -3 4 -6 -2 -5 -13z"/>
<path d="M10192 2598 c-15 -15 -16 -38 -2 -38 6 0 10 -7 10 -15 0 -8 -6 -15
-12 -15 -9 0 -8 -3 2 -10 9 -5 19 -5 27 2 16 13 17 38 2 38 -6 0 -9 9 -6 20 6
24 -5 34 -21 18z"/>
<path d="M10249 2595 c-8 -8 3 -75 12 -75 5 0 9 18 9 40 0 36 -8 49 -21 35z"/>
<path d="M10305 2580 c-9 -30 4 -60 26 -60 10 0 19 5 19 12 0 9 3 9 12 0 7 -7
20 -12 30 -12 10 0 18 5 18 12 0 9 3 9 12 0 20 -20 45 -14 52 12 12 47 -21 75
-52 44 -9 -9 -12 -9 -12 0 0 16 -37 15 -44 0 -5 -10 -7 -10 -12 0 -9 19 -42
14 -49 -8z m35 -20 c0 -16 -4 -30 -10 -30 -5 0 -10 14 -10 30 0 17 5 30 10 30
6 0 10 -13 10 -30z m60 0 c0 -16 -4 -30 -10 -30 -5 0 -10 14 -10 30 0 17 5 30
10 30 6 0 10 -13 10 -30z m60 0 c0 -16 -4 -30 -10 -30 -5 0 -10 14 -10 30 0
17 5 30 10 30 6 0 10 -13 10 -30z"/>
<path d="M10280 2530 c0 -5 5 -10 10 -10 6 0 10 5 10 10 0 6 -4 10 -10 10 -5
0 -10 -4 -10 -10z"/>
<path d="M10535 2307 c-3 -12 -5 -54 -3 -92 l3 -70 180 0 180 0 3 70 c5 124
19 115 -183 115 -173 0 -175 0 -180 -23z m175 -73 c0 -19 5 -34 10 -34 6 0 10
16 10 35 0 30 3 35 23 35 13 0 28 -5 35 -12 9 -9 12 -9 12 0 0 7 6 12 14 12
12 0 12 -7 -2 -40 -9 -22 -20 -40 -23 -40 -4 0 -10 15 -13 33 l-7 32 -14 -32
c-14 -33 -47 -45 -61 -22 -4 8 -9 8 -17 0 -6 -6 -24 -11 -39 -11 -26 0 -28 3
-28 40 l0 40 50 -1 c50 -2 50 -2 50 -35z"/>
<path d="M10641 2214 c0 -11 3 -14 6 -6 3 7 2 16 -1 19 -3 4 -6 -2 -5 -13z"/>
<path d="M10191 2287 c-14 -14 -14 -37 -1 -37 6 0 10 -7 10 -15 0 -8 -6 -15
-12 -15 -9 0 -8 -3 2 -10 9 -5 19 -5 27 2 15 12 17 38 3 38 -14 0 -12 28 2 32
8 3 7 6 -4 10 -8 4 -21 1 -27 -5z"/>
<path d="M10244 2276 c-3 -8 -4 -25 -2 -38 2 -19 9 -23 36 -23 17 -1 32 3 32
7 0 4 -4 8 -9 8 -5 0 -11 12 -13 27 -3 31 -34 44 -44 19z m27 -43 c-9 -17 -10
-17 -16 0 -4 9 -4 25 0 35 6 16 7 16 16 0 7 -12 7 -24 0 -35z"/>
<path d="M10324 2276 c-3 -8 -4 -25 -2 -38 4 -31 42 -32 46 0 2 15 -2 22 -12
22 -22 0 -20 17 2 23 12 4 11 5 -6 6 -12 0 -25 -5 -28 -13z m31 -35 c3 -5 1
-12 -5 -16 -5 -3 -10 1 -10 9 0 18 6 21 15 7z"/>
<path d="M10380 2280 c0 -5 7 -7 15 -4 10 4 15 0 15 -10 0 -9 -7 -19 -15 -22
-26 -10 -17 -34 13 -33 18 1 21 3 9 6 -17 4 -18 6 -2 24 10 10 15 25 12 34 -7
16 -47 21 -47 5z"/>
<path d="M10449 2285 c-8 -8 3 -75 12 -75 5 0 9 18 9 40 0 36 -8 49 -21 35z"/>
<path d="M10535 1987 c-3 -12 -5 -52 -3 -87 l3 -65 180 0 180 0 3 65 c6 118
19 110 -183 110 -173 0 -175 0 -180 -23z m175 -63 c0 -19 5 -34 10 -34 6 0 10
16 10 35 0 30 3 35 23 35 13 0 28 -5 35 -12 9 -9 12 -9 12 0 0 7 6 12 14 12
12 0 12 -7 -2 -40 -9 -22 -20 -40 -23 -40 -4 0 -10 15 -13 33 l-7 32 -14 -32
c-14 -33 -47 -45 -61 -22 -4 8 -9 8 -17 0 -6 -6 -24 -11 -39 -11 -26 0 -28 3
-28 40 l0 40 50 -1 c50 -2 50 -2 50 -35z"/>
<path d="M10641 1904 c0 -11 3 -14 6 -6 3 7 2 16 -1 19 -3 4 -6 -2 -5 -13z"/>
<path d="M10170 1965 c-8 -10 -8 -19 2 -35 11 -17 11 -22 0 -29 -11 -7 -11 -9
1 -14 16 -6 37 10 37 30 0 7 -4 13 -10 13 -14 0 -12 28 2 32 8 3 6 7 -4 11 -9
3 -22 0 -28 -8z"/>
<path d="M10220 1960 c0 -5 7 -7 15 -4 9 4 15 0 15 -9 0 -8 -7 -20 -15 -27
-23 -19 -18 -30 13 -29 18 1 21 3 9 6 -17 4 -18 6 -2 24 10 10 15 25 12 34 -7
16 -47 21 -47 5z"/>
<path d="M10304 1940 c-4 -16 -10 -30 -15 -30 -5 0 -9 -4 -9 -8 0 -5 15 -9 34
-10 38 -1 53 20 41 58 -10 32 -44 25 -51 -10z m36 -10 c0 -16 -4 -30 -10 -30
-5 0 -10 14 -10 30 0 17 5 30 10 30 6 0 10 -13 10 -30z"/>
<path d="M10380 1960 c12 -8 13 -12 2 -19 -11 -6 -10 -10 5 -15 17 -7 17 -8
-2 -23 l-20 -15 20 4 c15 2 20 12 22 41 2 32 -1 37 -20 37 -18 0 -19 -2 -7
-10z"/>
<path d="M10424 1955 c-8 -19 3 -35 24 -35 15 -1 15 -2 -2 -15 -18 -13 -18
-15 -3 -15 20 0 36 35 29 62 -5 22 -40 24 -48 3z m36 -16 c0 -5 -4 -9 -10 -9
-5 0 -10 7 -10 16 0 8 5 12 10 9 6 -3 10 -10 10 -16z"/>
</g>
</svg>
